<svg xmlns="http://www.w3.org/2000/svg" viewBox="0 0 1710.09 324.79"><defs><style>.a{fill:#fff;}</style></defs><path class="a" d="M715.74,432.88c6-14,11-30.94,19.12-44.51,4.38-7.29,4.91-7.95-2.92-4-22.2,11.2-44.06,17.41-56,29.55C644.36,446.09,695.4,480.13,715.74,432.88Zm-22.69-14.49a48.41,48.41,0,0,1,14.2-5.67c-3.24,13.71-11.16,25.56-18.78,24C683.14,435.71,681.29,425.74,693.05,418.39Zm460.39,93.36c-9.31,15.13-17.08,26-24.57,32.74-18.1,16.36-33.54,10.74-39.41-5.74-3.75-10.55-5.48-24.11-7.15-35.3-3.79-25.42-25.4-29.48-35.24-12.44-5.92,10.26-16.56,36.49-23,49.86-.92,1.94-2.27,1.69-1.94-7.65.25-7.27.39-16.16.59-25.1.8-36.19-19.64-34.51-28.27-27.15-9.66,8.24-14.7,24.29-20.56,34.31-3.44,6.76-8.73,16.42-14.26,23.31-10.52,13.12-30.53,10-23.8-20a141.59,141.59,0,0,1,5.5-19.67c3-8.71-1-13.22-6.6-14-3.87-.54-7.07,0-9.31-5.66-5.17-13-18.49-15.77-32.05-11.52-15.24,4.76-28.83,19.23-36.93,36.92l0-.06c-5.09,10.91-7.19,19.2-7.68,28.88-.44,8.78-3.34,6.28-8.27,4.8a38.28,38.28,0,0,0-15.78-1.5,50.22,50.22,0,0,0-11.51,2.85,205.78,205.78,0,0,1,7.71-49.76c3-10.6-1.75-13.86-8.74-14.08-6.77-.22-8.79-5.09-11-9.25-11.05-20.88-56-8.71-71.78,36.65a101.38,101.38,0,0,0-5.56,25c-14.67,36.09-46.19,25.67-40.61-19.55,1.26-10.27,3.76-20.59,5.44-28.16,0,0-19.28-11.45-25.65-1.67a274.58,274.58,0,0,1-6.61,35.31c-10.52,39.3-35.43,45.48-52,23.82a100.18,100.18,0,0,0,6.45-13.53c14.54-37.42,19.85-80.79,16-111.35-5.59-44-33.85-44.79-46.78-23.9-18.51,29.88-21,96.94-8,132.88A135.31,135.31,0,0,0,578,535.9c-20,24-46.6,19.38-63.89-7.74a183.47,183.47,0,0,0,15.56-41.46c8.85-35,10.56-79.15,1.93-103.38-11.52-32.35-37.52-31.86-49-1.93-12.7,33.07-12.7,94.64,0,132.59a152.55,152.55,0,0,0,5.69,14.58c-24.08,33-59.26,28.56-55.43-22.31.61-8,1.92-15.89,2.67-23.08-6.94-5-17.27-6-24.89-2.44-4.12,18.18-10.77,45-17.87,58-7,12.89-21.32,10.66-18.82-31.39a146.49,146.49,0,0,1,6.39-34.88s-19.56-6.39-25.64-1.67c-20.58,44.09-65.69,83-115,86.26-76.57,7.3-127.49-69.57-91.21-129.47,29.19-48.19,99.62-47,125.73-9.12,4.84,7.22-1.9,11.78-6.46,19.23-9.31,15.2-8.6,31.69-1.61,41.9,12.37,18.07,42.21,9.76,43.28-22.3,3.11-93.47-107.08-118.69-163.28-70.84C73,447.55,107.53,572.5,213,581.83c60.71,5.36,110.3-24.85,135.73-59.61-1.29,51.44,29.73,62.9,49.16,47.35,6.93-5.53,12.45-13.84,17.26-25.06,11.69,35.08,53.31,42,85,4.47,13.85,18.35,30.7,25.42,47.08,25.37,15.88-.06,31.24-6.44,43.7-18.72,26.57,29.89,61.45,16.44,73.7-9.37,12,31.51,46.77,36.47,64.32,10.3,8.87,15.16,27.38,17.42,45,2.94,6.31-5.17,11.62-11.88,16.7-17.62-.06,3.36.08,7.35.33,11.8-24.84,23-40.58,65.62-29.7,107.5,9.8,37.73,46.12,27.06,53.48-23.17,3.87-26.47.2-49.2-1.22-74.44a30.09,30.09,0,0,1,12.58-3.75c21.66-1.34,28.18,14.8,47.84,15.28v0c12.94.69,28.5-7.51,40.35-26.31,6.11,23.48,29.55,30.76,49.39,16.71,13.94-9.88,25.08-28.92,32.1-43.61l2.48-5.09c-.35,15,.37,38.65,7.22,50.55,8,13.87,25,15,40.67-18.72,5.12-11,10.33-23.82,14.47-33.45a198.56,198.56,0,0,0,4.59,24.56c11.52,43,43.55,43.78,66.5,28.22,12.85-8.72,23.61-21.13,28.2-35.72C1163.51,521,1159.47,512.56,1153.44,511.75ZM505.22,490.59c-.87,3.54-1.87,6.92-3,10.15q-1.38-4.89-2.47-10.22c-6.35-31.42-5.32-69.71,2.54-91.91,4.3-12.15,10.56-5.87,11.43,18.05C514.7,441.75,510.94,467.55,505.22,490.59Zm87.09,20.05a123.65,123.65,0,0,1-2.74-15.19c-3.57-30-.87-72.31,5.44-86.19,3-6.69,10.08-5.87,9.55,21.62-.43,21.95-3.64,51.68-7.62,65.82Q594.82,504.22,592.31,510.64Zm192.75-2.18c-17.5,36.28-36,39-36.06,21.58-.12-22.07,13.23-45.17,29.68-51C792.57,474.23,796.44,484.86,785.06,508.46ZM792.32,635c-3.26,22.11-9,21.83-10.54,15.55-4.62-19.28.3-45.91,11.42-65.34C794.17,601.72,794.59,619.55,792.32,635Zm99-94.22c-5.73,5.48-10.88,7.24-14.23,6.08-3.64-1.26-4.36-7.49-3.21-15.1,2.37-15.67,10.6-31.78,23.15-40.81,6.06-4.36,15.27-6.51,16.61-.26C915.88,501.26,905.07,527.56,891.29,540.77Zm525.53-141.72a30.2,30.2,0,0,1,11-5.06c-.2-6.91-4.58-11.62-10.46-13.71-8.43-3-18.59-1.41-28.73,8.38-29.82,28.78-48.81,82.68-73.4,143.14-3,7.24-5,6.31-5.76,2.29-1.11-5.64-2.44-22.75-4.14-41.29-2.19-23.89-13.75-28.75-24.1-24.22-6,2.61-11.24,7.69-15.52,14.88-13.5,22.63-22.88,40.62-24.93,44.75-2.44,4.9-4.78,7.89-5.14,2.06-4-65.8-5.93-102.48-18.41-125.82-10-18.6-29.56-22.72-44.31-16.67,29,22.25,33.65,74.19,38.25,164.86,1.57,30.93,28.84,36.3,48.75-3.35,6.67-13.29,8.46-16.35,14-26.63,3-6.48,6-9.08,6.84-2.18.77,6.26,2.12,14.57,6.64,36.41,6.43,31.05,35.37,28.57,51.93-11.39C1365.57,482.21,1384,422.62,1416.82,399.05Zm363.1,145.46c-11.08,17.1-30.85,18.24-41.51,5.83-8.48-9.87-9.07-32.15,7.8-60.48,5.88-9.87-2.65-24.24-19.7-15.88-9,4.4-16.43,8.86-22.45,12.34,0-1.55.07-3.08,0-4.59-.86-28.06-25.15-28-37.61-16.76-16.4,14.75-13.16,42.73,7.9,48.28-10.31,18.78-28.85,35.49-48.84,39a34.56,34.56,0,0,1-17.41-1.26,86.55,86.55,0,0,0,18.49-25.74c22.32-47.44-5.38-74.46-35.36-57.11C1570,480.48,1561,507.07,1563.8,529a53.85,53.85,0,0,0,6.13,19.07c-1.26.39-2.52.75-3.79,1-25.65,5.82-48.4-7.1-42.16-53.76,2-15,4.81-31.05,8-47.39a115.65,115.65,0,0,1,39.25-6.36c6-3.45,8.88-17.88,3.77-22.43a106.52,106.52,0,0,0-38,4.64c3.11-14.23,6.41-28.34,9.66-41.74,0,0-14.75-7.41-26.16.82-4.5,19.82-8.23,36.14-11.32,50.51a99.63,99.63,0,0,1-37.19,5.11c-7.31,2.51-10.27,15.35-5.23,22a109.37,109.37,0,0,0,37.62-3.38c-2.15,11.51-3.82,22.13-5.08,33-4.07,29.16-14,51.94-30.23,57.86-9.69,3.54-19.87-3.6-14.84-26a138.57,138.57,0,0,1,5.4-19.3c3-8.53-1-13-6.48-13.72-3.79-.53-6.93,0-9.13-5.54C1439,470.67,1426,468,1412.67,472.12c-28.13,8.8-50.52,51.25-42.12,85.15,6.7,27,41,28.72,62.67-5.65,3.41,19.67,21,27.6,39.31,22.1,13.16-4,23.49-13.67,31.28-25.86,11.46,22.75,36.88,32.6,68.1,23.86a85.66,85.66,0,0,0,14.75-5.68c12.09,7.85,27.84,10.94,44.81,7.67,34.53-6.64,58.41-34.5,68-63a132.16,132.16,0,0,0,16.39-7.78c-10.22,29.21-7,49.54,4.46,62.88,13.55,15.77,42.16,17.38,56.94.56C1785.1,557.42,1784.85,546.4,1779.92,544.51Zm-369.34-.73c-5.62,5.38-10.67,7.1-14,6-3.56-1.23-4.27-7.34-3.14-14.81,2.32-15.37,10.39-31.17,22.7-40,5.94-4.27,15-6.39,16.3-.25C1434.7,505,1424.1,530.83,1410.58,543.78ZM1587,520.93c-.09-13.61,6.18-29,15.93-33.46,6.53-3,11,1.53,5.67,18.12-4.15,12.89-10.52,22.87-18.06,30.11A32.87,32.87,0,0,1,1587,520.93Zm95.75-33.55a51.33,51.33,0,0,1-.83,5.9c-6.22-1.46-6.65-7.75-3.88-11.28C1680.07,479.35,1683.3,479.57,1682.7,487.38Z" transform="translate(-107.29 -359)"/><path class="a" d="M1803.14,545.71a14.4,14.4,0,1,1-.06,0Zm-.06,2.26c-6.39,0-11.61,5.48-11.61,12.23s5.22,12.32,11.67,12.32,11.6-5.42,11.6-12.25-5.16-12.3-11.6-12.3Zm-2.71,20.69h-2.58V552.48a28,28,0,0,1,4.57-.39,8.45,8.45,0,0,1,5,1.22,3.87,3.87,0,0,1,1.5,3.36,4.06,4.06,0,0,1-3.16,3.93v.13c1.41.26,2.38,1.55,2.7,3.92a13.73,13.73,0,0,0,1,4h-2.71a11.79,11.79,0,0,1-1.08-4.13c-.4-2.07-1.43-2.84-3.49-2.84h-1.8Zm0-9h1.87c2.13,0,3.92-.78,3.92-2.78,0-1.41-1-2.83-3.92-2.83a11.82,11.82,0,0,0-1.87.13Z" transform="translate(-107.29 -359)"/><path class="a" d="M1803.14,545.71a14.4,14.4,0,1,1-.06,0Zm-.06,2.26c-6.39,0-11.61,5.48-11.61,12.23s5.22,12.32,11.67,12.32,11.6-5.42,11.6-12.25-5.16-12.3-11.6-12.3Zm-2.71,20.69h-2.58V552.48a28,28,0,0,1,4.57-.39,8.45,8.45,0,0,1,5,1.22,3.87,3.87,0,0,1,1.5,3.36,4.06,4.06,0,0,1-3.16,3.93v.13c1.41.26,2.38,1.55,2.7,3.92a13.73,13.73,0,0,0,1,4h-2.71a11.79,11.79,0,0,1-1.08-4.13c-.4-2.07-1.43-2.84-3.49-2.84h-1.8Zm0-9h1.87c2.13,0,3.92-.78,3.92-2.78,0-1.41-1-2.83-3.92-2.83a11.82,11.82,0,0,0-1.87.13Z" transform="translate(-107.29 -359)"/></svg>