<?xml version="1.0" encoding="UTF-8"?>
<svg width="16px" height="35px" viewBox="0 0 16 35" version="1.1" xmlns="http://www.w3.org/2000/svg" xmlns:xlink="http://www.w3.org/1999/xlink">
    <title>D5164056-CB94-4E0D-9AC4-3BFE3FC3C358</title>
    <g id="Contact-Us-Page" stroke="none" stroke-width="1" fill="none" fill-rule="evenodd">
        <g id="ContactUs(Loc)_Mobile3" transform="translate(-25.000000, -4310.000000)" fill="#464646" fill-rule="nonzero">
            <g id="Footer-Extended" transform="translate(0.028171, 3611.000000)">
                <g id="Bottom-Text" transform="translate(24.971829, 573.000000)">
                    <g id="Social-logos" transform="translate(0.000000, 126.000000)">
                        <path d="M3.51029917,34.4166667 L10.2383726,34.4166667 L10.2383726,17.5 L14.9187715,17.5 L15.3575589,11.8125 L10.2383726,11.8125 C10.2383726,11.8125 10.2383726,9.625 10.2383726,8.60416667 C10.2383726,7.29166667 10.5308975,6.70833333 11.8472597,6.70833333 C12.871097,6.70833333 15.5038213,6.70833333 15.5038213,6.70833333 L15.5038213,0.875 C15.5038213,0.875 11.7009972,0.875 10.8234225,0.875 C5.85049862,0.875 3.51029917,3.0625 3.51029917,7.29166667 C3.51029917,10.9375 3.51029917,11.8125 3.51029917,11.8125 L0,11.8125 L0,17.5 L3.51029917,17.5 L3.51029917,34.4166667 Z" id="Facebook-Icon"></path>
                    </g>
                </g>
            </g>
        </g>
    </g>
</svg>