<?xml version="1.0" encoding="UTF-8"?>
<svg width="35px" height="34px" viewBox="0 0 35 34" version="1.1" xmlns="http://www.w3.org/2000/svg" xmlns:xlink="http://www.w3.org/1999/xlink">
    <title>D200E917-DAE7-4DDA-BC9A-92350B0F0F99</title>
    <defs>
        <polygon id="path-1" points="0 0 35 0 35 34 0 34"></polygon>
    </defs>
    <g id="Contact-Us-Page" stroke="none" stroke-width="1" fill="none" fill-rule="evenodd">
        <g id="ContactUs(Loc)_Mobile3" transform="translate(-254.000000, -4310.000000)">
            <g id="Footer-Extended" transform="translate(0.028171, 3611.000000)">
                <g id="Bottom-Text" transform="translate(24.971829, 573.000000)">
                    <g id="Social-logos" transform="translate(0.000000, 126.000000)">
                        <g id="Instagram-icon" transform="translate(229.000000, 0.000000)">
                            <path d="M17.5,10.2465753 C13.865847,10.2465753 10.9090909,13.2759788 10.9090909,16.999741 C10.9090909,20.7235321 13.865847,23.7534247 17.5,23.7534247 C21.1344057,23.7534247 24.0909091,20.7235321 24.0909091,16.999741 C24.0909091,13.2759788 21.1344057,10.2465753 17.5,10.2465753" id="Fill-1" fill="#464646"></path>
                            <g id="Group-5">
                                <mask id="mask-2" fill="white">
                                    <use xlink:href="#path-1"></use>
                                </mask>
                                <g id="Clip-4"></g>
                                <path d="M27.7264235,8.47260165 C26.899873,8.47260165 26.2298275,7.7890393 26.2298275,6.94581464 C26.2298275,6.10258999 26.899873,5.41899862 27.7264235,5.41899862 C28.5529741,5.41899862 29.2230195,6.10258999 29.2230195,6.94581464 C29.2230195,7.7890393 28.5529741,8.47260165 27.7264235,8.47260165 M17.4998692,26.3506297 C12.4241328,26.3506297 8.29487817,22.1380461 8.29487817,16.959684 C8.29487817,11.7817862 12.4241328,7.56923164 17.4998692,7.56923164 C22.5756056,7.56923164 26.7048886,11.7817862 26.7048886,16.959684 C26.7048886,22.1380461 22.5756056,26.3506297 17.4998692,26.3506297 M26.5922379,-2.90136813e-06 L8.40752885,-2.90136813e-06 C3.77153108,-2.90136813e-06 -5.6879926e-06,3.84761758 -5.6879926e-06,8.57710894 L-5.6879926e-06,25.4231203 C-5.6879926e-06,30.1523795 3.77153108,33.9999971 8.40752885,33.9999971 L26.5922379,33.9999971 C31.2284632,33.9999971 34.9999943,30.1523795 34.9999943,25.4231203 L34.9999943,8.57710894 C34.9999943,3.84761758 31.2284632,-2.90136813e-06 26.5922379,-2.90136813e-06" id="Fill-3" fill="#464646" mask="url(#mask-2)"></path>
                            </g>
                        </g>
                    </g>
                </g>
            </g>
        </g>
    </g>
</svg>