<?xml version="1.0" encoding="UTF-8"?>
<svg width="41px" height="34px" viewBox="0 0 41 34" version="1.1" xmlns="http://www.w3.org/2000/svg" xmlns:xlink="http://www.w3.org/1999/xlink">
    <title>289ED757-C57F-485F-B509-E83F1A60D222</title>
    <g id="Contact-Us-Page" stroke="none" stroke-width="1" fill="none" fill-rule="evenodd">
        <g id="ContactUs(Loc)_Mobile3" transform="translate(-195.000000, -4310.000000)">
            <g id="Footer-Extended" transform="translate(0.028171, 3611.000000)">
                <g id="Bottom-Text" transform="translate(24.971829, 573.000000)">
                    <g id="Social-logos" transform="translate(0.000000, 126.000000)">
                        <g id="Linkedin-Icon" transform="translate(170.529079, 0.000000)">
                            <path d="M33.6403671,31.5778689 C33.6403671,32.6579577 32.7549217,33.5416667 31.6727106,33.5416667 L1.96765649,33.5416667 C0.885445419,33.5416667 0,32.6579577 0,31.5778689 L0,1.96379781 C0,0.883709016 0.885445419,0 1.96765649,0 L31.6727106,0 C32.7549217,0 33.6403671,0.883709016 33.6403671,1.96379781 L33.6403671,31.5778689 L33.6403671,31.5778689 Z" id="Path" fill="#464646" fill-rule="nonzero"></path>
                            <g id="Group" transform="translate(35.136233, 29.173295)">
                                <ellipse id="Oval" stroke="#464646" stroke-width="0.25" cx="2.16734381" cy="2.16098485" rx="2.16734381" ry="2.16098485"></ellipse>
                                <path d="M1.34295537,3.30776515 L1.34295537,1.02083333 L2.36014433,1.02083333 C2.56624144,1.02083333 2.7191522,1.0407197 2.8255249,1.08049242 C2.9318976,1.12026515 3.01832543,1.19318182 3.07816007,1.29924242 C3.14464301,1.40530303 3.17123618,1.51799242 3.17123618,1.64393939 C3.17123618,1.8030303 3.11804983,1.94223485 3.01167713,2.05492424 C2.90530443,2.16761364 2.74574538,2.23390152 2.52635168,2.26704545 C2.6061312,2.30681818 2.66596585,2.34659091 2.71250391,2.37973485 C2.79893173,2.4592803 2.88535955,2.56534091 2.96513907,2.68465909 L3.36403671,3.30776515 L2.98508396,3.30776515 L2.67926244,2.83049242 C2.59283462,2.69128788 2.51970338,2.58522727 2.45986874,2.51231061 C2.40003409,2.43939394 2.35349604,2.38636364 2.30695798,2.35984848 C2.26041992,2.33333333 2.21388186,2.31344697 2.16734381,2.30018939 C2.13410234,2.29356061 2.07426769,2.28693182 2.00113646,2.28693182 L1.64877688,2.28693182 L1.64877688,3.30776515 L1.34295537,3.30776515 Z M1.64877688,2.02840909 L2.30030969,2.02840909 C2.43992386,2.02840909 2.54629656,2.01515152 2.62607609,1.98863636 C2.70585561,1.96212121 2.76569026,1.9157197 2.80558002,1.84943182 C2.84546978,1.78977273 2.86541467,1.71685606 2.86541467,1.64393939 C2.86541467,1.53787879 2.8255249,1.44507576 2.74574538,1.37878788 C2.66596585,1.30587121 2.53964827,1.27272727 2.37344092,1.27272727 L1.64877688,1.27272727 L1.64877688,2.02840909 Z" id="Shape" fill="#464646" fill-rule="nonzero"></path>
                            </g>
                            <path d="M18.1909746,15.5557832 C18.7547899,14.8027868 19.4259986,14.1889999 20.2784335,13.7587163 C21.2785344,13.2525002 22.3524682,13.0373584 23.4800988,13.1575847 C24.1513074,13.2335171 24.8359402,13.2714833 25.4803005,13.4423312 C27.3529726,13.9358919 28.4201944,15.2014319 28.8363438,16.9288941 C29.0712668,17.8907046 29.2122206,18.8904813 29.2256448,19.8712748 C29.2726294,22.8326386 29.2390689,25.8003301 29.2524931,28.7680215 C29.2524931,29.0844066 29.1383876,29.160339 28.8296317,29.160339 C27.3731089,29.1476836 25.9232982,29.1476836 24.4667755,29.160339 C24.1378832,29.160339 24.043914,29.0654235 24.043914,28.7616938 C24.0573382,26.2053029 24.0640503,23.6425842 24.0372019,21.0861933 C24.0304899,20.4407679 23.9700811,19.7890147 23.8224152,19.1625724 C23.5539317,18.0362417 22.7820418,17.4920595 21.55373,17.4794041 C21.1778531,17.4730764 20.7952642,17.4920595 20.4328115,17.5743196 C19.2380601,17.8527384 18.7212295,18.706978 18.526579,19.7573762 C18.4326098,20.2635922 18.3923372,20.7824637 18.3923372,21.3013351 C18.3789131,23.7881213 18.3856252,26.2749076 18.3856252,28.7616938 C18.3856252,29.160339 18.3856252,29.160339 17.9493395,29.160339 C16.4928168,29.160339 15.0430061,29.1540113 13.5864833,29.1666667 C13.2643032,29.1666667 13.1636219,29.0844066 13.1636219,28.7680215 C13.170334,23.8260876 13.170334,18.8778259 13.170334,13.9358919 C13.170334,13.5372467 13.170334,13.5372467 13.5999075,13.5372467 C15.0027336,13.5372467 16.3988476,13.5435744 17.8016736,13.530919 C18.0970054,13.530919 18.1976867,13.6068514 18.1909746,13.891598 C18.1775505,14.4357802 18.1909746,14.9926178 18.1909746,15.5557832 Z" id="Path" fill="#F6F6F6" fill-rule="nonzero"></path>
                            <path d="M4.39392019,21.1362378 C4.39392019,18.5979211 4.39955961,16.0531126 4.38828077,13.514796 C4.38828077,13.2226623 4.45031437,13.1187926 4.71536701,13.1252845 C5.96167838,13.1382682 7.21362916,13.1382682 8.45994053,13.1252845 C8.69115666,13.1252845 8.77574793,13.190203 8.77574793,13.4758448 C8.77010852,18.5914293 8.77010852,23.7005219 8.77574793,28.8161063 C8.77574793,29.0692888 8.71371434,29.1666667 8.4824982,29.1666667 C7.21362916,29.1601748 5.95039954,29.1601748 4.6815305,29.1666667 C4.43339611,29.1666667 4.38264135,29.0498132 4.38828077,28.7901389 C4.39392019,26.2388385 4.39392019,23.6875381 4.39392019,21.1362378 Z" id="Path" fill="#F6F6F6" fill-rule="nonzero"></path>
                            <path d="M6.57934492,10.2083333 C5.36076915,10.2083333 4.38787397,9.24318776 4.38787397,8.03308137 C4.38787397,6.80337813 5.35585553,5.83333333 6.58425854,5.83333333 C7.80283432,5.83333333 8.78064311,6.81317656 8.77574793,8.03798059 C8.78064311,9.24318776 7.80283432,10.2083333 6.57934492,10.2083333 Z" id="Path" fill="#F6F6F6" fill-rule="nonzero"></path>
                        </g>
                    </g>
                </g>
            </g>
        </g>
    </g>
</svg>