<?xml version="1.0" encoding="UTF-8"?>
<svg width="28px" height="32px" viewBox="0 0 28 32" version="1.1" xmlns="http://www.w3.org/2000/svg" xmlns:xlink="http://www.w3.org/1999/xlink">
    <title>CDF359C7-E701-488B-9591-D699BC1ECF5D</title>
    <defs>
        <polygon id="path-1" points="0 0 28 0 28 32 0 32"></polygon>
    </defs>
    <g id="Contact-Us-Page" stroke="none" stroke-width="1" fill="none" fill-rule="evenodd">
        <g id="ContactUs(Loc)_Mobile3" transform="translate(-314.000000, -4310.000000)">
            <g id="Footer-Extended" transform="translate(0.028171, 3611.000000)">
                <g id="Bottom-Text" transform="translate(24.971829, 573.000000)">
                    <g id="Social-logos" transform="translate(0.000000, 126.000000)">
                        <g id="Tiktok-icon" transform="translate(289.000000, 0.000000)">
                            <mask id="mask-2" fill="white">
                                <use xlink:href="#path-1"></use>
                            </mask>
                            <g id="Clip-2"></g>
                            <path d="M27.7371986,8.22319453 C24.7177518,6.75575355 21.7750827,3.01134653 20.6419426,1.23767012 L19.8571672,0 L15.1116538,0 L15.1024863,21.7307417 C15.1024863,21.7759039 15.1051601,21.8174833 15.1084069,21.8596283 C15.1099349,21.8799938 15.1116538,21.899982 15.1116538,21.9216674 C15.1116538,24.5919876 12.911456,26.7642038 10.2069506,26.7642038 C7.50779305,26.7642038 5.3118925,24.5919876 5.3118925,21.9216674 C5.3118925,19.2566272 7.50779305,17.0883709 10.2069506,17.0883709 L10.2069506,11.8434291 C4.57877971,11.8434291 0,16.3646446 0,21.9216674 C0,27.4790674 4.57877971,32 10.2069506,32 C15.8354081,32 20.4143788,27.4790674 20.4143788,21.9216674 L20.4143788,9.25579628 C22.7727158,11.5743417 25.1238907,13.066108 27.4039221,13.6897044 L28,13.8528163 L28,8.35094977 L27.7371986,8.22319453 Z" id="Fill-1" fill="#464646" mask="url(#mask-2)"></path>
                        </g>
                    </g>
                </g>
            </g>
        </g>
    </g>
</svg>