<?xml version="1.0" encoding="UTF-8"?>
<svg width="35px" height="29px" viewBox="0 0 35 29" version="1.1" xmlns="http://www.w3.org/2000/svg" xmlns:xlink="http://www.w3.org/1999/xlink">
    <title>81DC9FE0-3D47-4E6A-8553-3CF71D1EE7D5</title>
    <g id="Contact-Us-Page" stroke="none" stroke-width="1" fill="none" fill-rule="evenodd">
        <g id="ContactUs(Loc)_Mobile3" transform="translate(-64.000000, -4314.000000)" fill="#464646" fill-rule="nonzero">
            <g id="Footer-Extended" transform="translate(0.028171, 3611.000000)">
                <g id="Bottom-Text" transform="translate(24.971829, 573.000000)">
                    <g id="Social-logos" transform="translate(0.000000, 126.000000)">
                        <g id="Twitter-Icon" transform="translate(39.385800, 4.812500)">
                            <path d="M0,24.2083333 C3.07151178,26.25 6.72807342,27.4166667 10.67716,27.4166667 C23.6945194,27.4166667 31.0076427,16.4791667 30.5688553,6.70833333 C31.8852175,5.6875 33.0553172,4.52083333 34.0791545,3.0625 C32.7627923,3.64583333 31.4464301,3.9375 29.9838054,4.22916667 C31.4464301,3.35416667 32.4702674,2.04166667 33.0553172,0.4375 C31.738955,1.16666667 30.1300679,1.75 28.6674432,2.1875 C27.3510811,0.875 25.5959315,0 23.548257,0 C19.0141205,0 15.6500838,4.22916667 16.6739211,8.60416667 C10.8234225,8.3125 5.70423616,5.54166667 2.19393698,1.3125 C0.292524931,4.52083333 1.17009972,8.60416667 4.38787397,10.6458333 C3.21777424,10.6458333 2.19393698,10.3541667 1.17009972,9.77083333 C1.02383726,12.9791667 3.36403671,16.0416667 6.72807342,16.7708333 C5.70423616,17.0625 4.6803989,17.0625 3.51029917,16.9166667 C4.38787397,19.6875 7.02059835,21.7291667 10.0921101,21.7291667 C7.45938574,23.625 3.65656164,24.6458333 0,24.2083333 Z" id="XMLID_124_"></path>
                        </g>
                    </g>
                </g>
            </g>
        </g>
    </g>
</svg>