<?xml version="1.0" encoding="UTF-8"?>
<svg width="49px" height="34px" viewBox="0 0 49 34" version="1.1" xmlns="http://www.w3.org/2000/svg" xmlns:xlink="http://www.w3.org/1999/xlink">
    <title>DB4B75C7-2841-4697-B7FF-C7D1ACD662E9</title>
    <g id="Contact-Us-Page" stroke="none" stroke-width="1" fill="none" fill-rule="evenodd">
        <g id="ContactUs(Loc)_Mobile3" transform="translate(-123.000000, -4311.000000)" fill="#464646" fill-rule="nonzero">
            <g id="Footer-Extended" transform="translate(0.028171, 3611.000000)">
                <g id="Bottom-Text" transform="translate(24.971829, 573.000000)">
                    <g id="Social-logos" transform="translate(0.000000, 126.000000)">
                        <g id="Youtube-icon" transform="translate(98.009972, 1.458333)">
                            <path d="M46.2152826,3.23219697 C44.9060507,0.878181818 43.4852022,0.445189394 40.5922221,0.280530303 C37.7022586,0.0823295455 30.4351166,0 24.1393401,0 C17.8314971,0 10.5613384,0.0823295455 7.67439157,0.277481061 C4.78744474,0.445189394 3.36357964,0.875132576 2.04228109,3.23219697 C0.693832571,5.58316288 0,9.63255682 0,16.7616856 C0,16.7677841 0,16.7708333 0,16.7708333 C0,16.7769318 0,16.7799811 0,16.7799811 L0,16.7860795 C0,23.8847159 0.693832571,27.9646023 2.04228109,30.2911742 C3.36357964,32.6451894 4.78442808,33.0720833 7.6713749,33.2702841 C10.5613384,33.4410417 17.8314971,33.5416667 24.1393401,33.5416667 C30.4351166,33.5416667 37.7022586,33.4410417 40.5952387,33.2733333 C43.4882189,33.0751326 44.9090673,32.6482386 46.2182992,30.2942235 C47.5788144,27.9676515 48.2666136,23.8877652 48.2666136,16.7891288 C48.2666136,16.7891288 48.2666136,16.7799811 48.2666136,16.7738826 C48.2666136,16.7738826 48.2666136,16.7677841 48.2666136,16.7647348 C48.2666136,9.63255682 47.5788144,5.58316288 46.2152826,3.23219697 Z M19.0141205,27.7083333 L19.0141205,8.75 L33.6403671,18.2291667 L19.0141205,27.7083333 Z" id="Shape"></path>
                        </g>
                    </g>
                </g>
            </g>
        </g>
    </g>
</svg>